HIERARCHY
ROOT Hips
{
	OFFSET 0.00000 0.00000 0.00000
	CHANNELS 6 Xposition Yposition Zposition Zrotation Yrotation Xrotation 
	JOINT LHipJoint
	{
		OFFSET 0 0 0
		CHANNELS 3 Zrotation Yrotation Xrotation
		JOINT LeftUpLeg
		{
			OFFSET 1.65674 -1.80282 0.62477
			CHANNELS 3 Zrotation Yrotation Xrotation
			JOINT LeftLeg
			{
				OFFSET 2.59720 -7.13576 0.00000
				CHANNELS 3 Zrotation Yrotation Xrotation
				JOINT LeftFoot
				{
					OFFSET 2.49236 -6.84770 0.00000
					CHANNELS 3 Zrotation Yrotation Xrotation
					JOINT LeftToeBase
					{
						OFFSET 0.19704 -0.54136 2.14581
						CHANNELS 3 Zrotation Yrotation Xrotation
						End Site
						{
							OFFSET 0.00000 -0.00000 1.11249
						}
					}
				}
			}
		}
	}
	JOINT RHipJoint
	{
		OFFSET 0 0 0
		CHANNELS 3 Zrotation Yrotation Xrotation
		JOINT RightUpLeg
		{
			OFFSET -1.61070 -1.80282 0.62476
			CHANNELS 3 Zrotation Yrotation Xrotation
			JOINT RightLeg
			{
				OFFSET -2.59502 -7.12977 0.00000
				CHANNELS 3 Zrotation Yrotation Xrotation
				JOINT RightFoot
				{
					OFFSET -2.46780 -6.78024 0.00000
					CHANNELS 3 Zrotation Yrotation Xrotation
					JOINT RightToeBase
					{
						OFFSET -0.23024 -0.63258 2.13368
						CHANNELS 3 Zrotation Yrotation Xrotation
						End Site
						{
							OFFSET -0.00000 -0.00000 1.11569
						}
					}
				}
			}
		}
	}
	JOINT LowerBack
	{
		OFFSET 0 0 0
		CHANNELS 3 Zrotation Yrotation Xrotation
		JOINT Spine
		{
			OFFSET 0.01961 2.05450 -0.14112
			CHANNELS 3 Zrotation Yrotation Xrotation
			JOINT Spine1
			{
				OFFSET 0.01021 2.06436 -0.05921
				CHANNELS 3 Zrotation Yrotation Xrotation
				JOINT Neck
				{
					OFFSET 0 0 0
					CHANNELS 3 Zrotation Yrotation Xrotation
					JOINT Neck1
					{
						OFFSET 0.00713 1.56711 0.14968
						CHANNELS 3 Zrotation Yrotation Xrotation
						JOINT Head
						{
							OFFSET 0.03429 1.56041 -0.10006
							CHANNELS 3 Zrotation Yrotation Xrotation
							End Site
							{
								OFFSET 0.01305 1.62560 -0.05265
							}
						}
					}
				}
				JOINT LeftShoulder
				{
					OFFSET 0 0 0
					CHANNELS 3 Zrotation Yrotation Xrotation
					JOINT LeftArm
					{
						OFFSET 3.54205 0.90436 -0.17364
						CHANNELS 3 Zrotation Yrotation Xrotation
						JOINT LeftForeArm
						{
							OFFSET 4.86513 -0.00000 -0.00000
							CHANNELS 3 Zrotation Yrotation Xrotation
							JOINT LeftHand
							{
								OFFSET 3.35554 -0.00000 0.00000
								CHANNELS 3 Zrotation Yrotation Xrotation
								JOINT LeftFingerBase
								{
									OFFSET 0 0 0
									CHANNELS 3 Zrotation Yrotation Xrotation
									JOINT LeftHandIndex1
									{
										OFFSET 0.66117 -0.00000 0.00000
										CHANNELS 3 Zrotation Yrotation Xrotation
										End Site
										{
											OFFSET 0.53306 -0.00000 0.00000
										}
									}
								}
								JOINT LThumb
								{
									OFFSET 0 0 0
									CHANNELS 3 Zrotation Yrotation Xrotation
									End Site
									{
										OFFSET 0.54120 -0.00000 0.54120
									}
								}
							}
						}
					}
				}
				JOINT RightShoulder
				{
					OFFSET 0 0 0
					CHANNELS 3 Zrotation Yrotation Xrotation
					JOINT RightArm
					{
						OFFSET -3.49802 0.75994 -0.32616
						CHANNELS 3 Zrotation Yrotation Xrotation
						JOINT RightForeArm
						{
							OFFSET -5.02649 -0.00000 0.00000
							CHANNELS 3 Zrotation Yrotation Xrotation
							JOINT RightHand
							{
								OFFSET -3.36431 -0.00000 0.00000
								CHANNELS 3 Zrotation Yrotation Xrotation
								JOINT RightFingerBase
								{
									OFFSET 0 0 0
									CHANNELS 3 Zrotation Yrotation Xrotation
									JOINT RightHandIndex1
									{
										OFFSET -0.73041 -0.00000 0.00000
										CHANNELS 3 Zrotation Yrotation Xrotation
										End Site
										{
											OFFSET -0.58887 -0.00000 0.00000
										}
									}
								}
								JOINT RThumb
								{
									OFFSET 0 0 0
									CHANNELS 3 Zrotation Yrotation Xrotation
									End Site
									{
										OFFSET -0.59786 -0.00000 0.59786
									}
								}
							}
						}
					}
				}
			}
		}
	}
}
MOTION
Frames: 10
Frame Time: .0083333
10.0061 17.8631 -0.2602 0 0 0 0 0 0 -21 0 0 0 0 0 0 0 0 0 0 0 0 0 0 21 0 0 0 0 0 0 0 0 0 0 0 0 0 0 0 0 0 0 0 0 0 0 -16 0 0 21 0 0 11 0 0 0 -8 0 0 0 0 0 0 0 0 0 0 0 0 0 0 0 0 0 0 0 0 8 0 0 0 0 0 0 0 0 0 0 0 0 0 0 0 0 0
10.0061 17.8631 -0.2602 -0.2242 -9.5859 -7.1194 0.0000 0.0000 0.0000 -20.4557 2.1779 7.1079 0.7202 5.4228 15.1186 0.0704 13.8480 -20.4656 0.0085 -0.5966 -1.6394 0.0000 0.0000 0.0000 19.6896 0.2718 9.8108 -0.3212 -3.6427 10.0735 0.0709 -11.2069 -14.8767 -0.0052 0.4637 -1.2742 1.2906 -1.3539 2.7784 0.7829 -1.7832 2.0420 0.1193 -0.8853 0.5212 -5.8989 -7.3298 -8.8392 3.9163 -9.4077 5.6229 1.7400 -4.6254 3.9661 0.0000 -0.0000 0.0000 -93.6352 3.2362 14.3584 17.0601 -26.9370 -4.1145 -0.0000 0.0000 -25.3852 19.9090 20.7710 7.3189 -7.1250 0.0000 -0.0000 -8.8279 51.7374 -1.4742 0.0000 -0.0000 0.0000 83.5508 -14.1387 37.3874 -32.7105 43.1064 -13.2238 0.0000 -0.0000 -21.3257 -23.8928 13.6878 -5.9842 7.1250 -0.0000 -0.0000 2.3978 -15.0730 1.6933
10.0122 17.8621 -0.2600 -0.3134 -9.5687 -7.0955 0.0000 0.0000 0.0000 -20.3998 2.1518 7.1251 0.7118 5.3918 15.0296 0.0333 14.0377 -20.3173 0.0096 -0.6328 -1.7390 0.0000 0.0000 0.0000 19.7791 0.3608 9.7443 -0.3273 -3.6769 10.1694 0.0704 -11.2358 -14.9294 -0.0025 0.3245 -0.8915 1.4372 -1.3730 2.7697 0.7581 -1.8060 2.0576 0.0121 -0.8949 0.5367 -5.6827 -7.4841 -9.1814 3.8371 -9.6299 6.2950 1.4686 -4.7178 3.8249 0.0000 0.0000 0.0000 -93.5692 3.3654 14.3438 16.9614 -26.8069 -4.0699 -0.0000 0.0000 -25.4550 19.6144 21.3083 7.3787 -7.1250 0.0000 -0.0000 -9.3096 52.2367 -1.6703 0.0000 0.0000 0.0000 83.4074 -14.5803 37.6882 -33.9567 44.0526 -14.0830 0.0000 -0.0000 -21.4537 -23.6934 13.9582 -6.0424 7.1250 -0.0000 -0.0000 2.5507 -14.8042 1.8161
10.0165 17.8669 -0.2570 0.1566 -9.6031 -7.0503 0.0000 0.0000 0.0000 -20.9731 1.9065 7.2462 0.6812 5.2772 14.7010 0.0502 14.0807 -20.5620 0.0004 -0.1339 -0.3678 0.0000 0.0000 0.0000 19.2666 0.5491 9.4046 -0.3584 -3.8458 10.6433 0.0498 -11.1309 -15.0957 -0.0001 0.0481 -0.1321 0.9403 -1.3960 2.6299 0.6351 -1.8484 2.0373 0.1615 -0.9202 0.6048 -5.5145 -7.5455 -9.6367 3.5502 -9.6958 6.7583 1.3256 -4.7535 4.0206 0.0000 -0.0000 0.0000 -93.6775 3.4906 13.8355 16.8565 -26.6682 -4.0227 -0.0000 0.0000 -25.1500 20.4722 20.6008 7.4834 -7.1250 0.0000 -0.0000 -8.2122 51.6595 -1.3544 0.0000 -0.0000 0.0000 83.2184 -14.8911 38.0633 -35.0563 44.8523 -14.8531 0.0000 -0.0000 -21.5179 -23.2635 14.4425 -6.1201 7.1250 -0.0000 -0.0000 2.8731 -14.3334 2.0751
10.0203 17.8657 -0.2540 0.5791 -9.6181 -7.0328 0.0000 0.0000 0.0000 -21.4585 1.8457 7.3078 0.6648 5.2143 14.5209 0.0931 13.9114 -20.7959 0.0017 0.2673 0.7345 0.0000 0.0000 0.0000 18.7680 0.5372 9.1861 -0.3742 -3.9291 10.8774 0.0400 -11.0494 -15.1269 -0.0000 0.0285 -0.0783 0.4269 -1.4472 2.4894 0.6169 -1.9276 2.0397 0.4274 -0.9651 0.7016 -5.5974 -7.6100 -9.8786 3.2936 -9.7414 7.0745 1.2418 -4.7879 4.1497 -0.0000 0.0000 0.0000 -94.0010 3.5257 12.9386 16.7121 -26.4767 -3.9581 -0.0000 0.0000 -24.5311 21.1503 19.3779 7.3148 -7.1250 0.0000 -0.0000 -7.1598 50.5062 -0.9759 -0.0000 0.0000 0.0000 82.8016 -15.1291 38.6580 -36.2960 45.7157 -15.7341 0.0000 -0.0000 -21.7391 -23.0618 14.7582 -6.1898 7.1250 -0.0000 -0.0000 3.0293 -14.0187 2.2084
10.0219 17.8642 -0.2521 0.4898 -9.6152 -7.1335 0.0000 0.0000 0.0000 -21.3360 2.0394 7.4627 0.6552 5.1774 14.4152 0.0989 13.8146 -20.7288 0.0008 0.1794 0.4928 0.0000 0.0000 0.0000 18.8474 0.4628 9.2175 -0.3863 -3.9915 11.0527 0.0168 -10.9324 -15.3115 -0.0010 0.2025 -0.5563 0.4543 -1.4604 2.5703 0.7367 -1.9450 2.0812 0.5365 -0.9744 0.7024 -6.1795 -7.7968 -9.6527 3.5274 -9.9483 7.0323 1.3932 -4.8958 4.1501 0.0000 -0.0000 0.0000 -94.3148 3.7004 12.3687 16.6704 -26.4212 -3.9396 -0.0000 0.0000 -23.9079 20.8749 19.1202 7.1202 -7.1250 0.0000 -0.0000 -7.3534 50.1930 -0.9457 0.0000 -0.0000 0.0000 82.4141 -15.5518 39.0787 -37.8878 46.7675 -16.8838 0.0000 -0.0000 -21.9035 -23.0061 15.0711 -6.3001 7.1250 -0.0000 -0.0000 3.0865 -13.6903 2.2717
10.0211 17.8671 -0.2528 0.5609 -9.6028 -7.0930 0.0000 0.0000 0.0000 -21.3997 2.0790 7.3333 0.6592 5.1930 14.4599 0.0674 13.9283 -20.5410 0.0001 -0.0468 -0.1286 0.0000 0.0000 0.0000 18.7781 0.5280 9.1724 -0.3873 -3.9961 11.0658 0.0050 -10.8855 -15.4237 -0.0010 0.2013 -0.5532 0.3288 -1.4546 2.5646 0.7719 -1.9390 2.0101 0.6436 -0.9729 0.6381 -6.8119 -7.8511 -9.0097 4.1643 -10.0286 6.5674 1.7081 -4.9282 3.9726 -0.0000 -0.0000 0.0000 -94.4051 3.8766 12.3096 16.4970 -26.1899 -3.8627 -0.0000 0.0000 -23.6341 20.2018 20.0111 7.1768 -7.1250 0.0000 -0.0000 -8.2866 51.0048 -1.2332 -0.0000 -0.0000 0.0000 82.0986 -16.1083 39.5883 -39.5582 47.8060 -18.1112 0.0000 -0.0000 -22.0309 -23.1276 15.6429 -6.5695 7.1250 -0.0000 -0.0000 3.0419 -13.0629 2.2789
10.0211 17.8697 -0.2575 0.4338 -9.6362 -6.9102 0.0000 0.0000 0.0000 -21.2643 1.9717 7.0625 0.6732 5.2468 14.6138 0.0438 14.0497 -20.4495 0.0006 -0.1642 -0.4512 0.0000 0.0000 0.0000 18.9455 0.6605 9.0589 -0.3797 -3.9572 10.9563 0.0128 -10.9408 -15.3843 -0.0004 0.1355 -0.3723 0.3811 -1.5369 2.4967 0.8170 -2.0479 1.9529 0.6616 -1.0270 0.6182 -6.7322 -7.7434 -8.9471 4.2951 -9.9070 6.4537 1.7494 -4.8608 3.9241 -0.0000 -0.0000 0.0000 -94.4132 3.8838 11.9510 16.2286 -25.8297 -3.7450 -0.0000 0.0000 -23.5612 19.7206 20.8340 7.2654 -7.1250 0.0000 -0.0000 -9.0364 51.7695 -1.5167 -0.0000 -0.0000 0.0000 81.6820 -16.4747 40.6613 -41.3186 48.8320 -19.4261 0.0000 -0.0000 -22.3385 -23.7065 16.1213 -6.9516 7.1250 -0.0000 -0.0000 2.6879 -12.4747 2.0461
10.0278 17.8682 -0.2617 0.2210 -9.6925 -6.9768 0.0000 0.0000 0.0000 -21.0587 1.9537 7.1003 0.6878 5.3021 14.7723 0.0512 14.0562 -20.5394 0.0009 -0.1939 -0.5328 0.0000 0.0000 0.0000 19.1593 0.5977 9.1758 -0.3730 -3.9229 10.8600 0.0154 -10.9045 -15.2932 -0.0027 0.3361 -0.9236 0.5886 -1.6286 2.7191 0.8664 -2.1645 1.9926 0.6047 -1.0838 0.5299 -6.4021 -7.6644 -9.4046 4.0485 -9.8018 6.8317 1.6086 -4.8062 4.0795 0.0000 -0.0000 0.0000 -94.4221 3.7385 11.3994 15.8115 -25.2644 -3.5651 -0.0000 0.0000 -23.5251 20.1372 20.1630 7.2036 -7.1250 0.0000 -0.0000 -8.3993 51.1506 -1.2803 0.0000 -0.0000 0.0000 81.2512 -16.8173 41.8229 -43.4209 49.9710 -21.0225 0.0000 -0.0000 -22.9211 -24.7405 17.0406 -7.6906 7.1250 -0.0000 -0.0000 2.0741 -11.3407 1.6268
10.0326 17.8692 -0.2673 0.2236 -9.7173 -7.0546 0.0000 0.0000 0.0000 -21.0749 1.9452 7.0441 0.7081 5.3783 14.9907 0.0566 14.0469 -20.5850 0.0002 -0.0956 -0.2626 0.0000 0.0000 0.0000 19.1479 0.5648 9.3147 -0.3596 -3.8524 10.6617 0.0421 -11.0647 -15.1166 -0.0075 0.5583 -1.5343 0.5884 -1.6595 2.9488 0.8770 -2.2025 1.9596 0.6247 -1.1030 0.3684 -6.4623 -7.6385 -9.4874 4.1195 -9.7672 7.0277 1.6347 -4.7858 4.1579 -0.0000 0.0000 0.0000 -94.4008 3.6591 11.0674 15.3505 -24.6322 -3.3707 -0.0000 0.0000 -23.4622 20.9115 18.9489 7.0728 -7.1250 0.0000 -0.0000 -7.2678 50.0205 -0.9037 -0.0000 0.0000 0.0000 80.8975 -17.2922 42.7336 -45.6434 51.0798 -22.7382 0.0000 -0.0000 -23.4640 -25.7889 18.4458 -8.6922 7.1250 -0.0000 -0.0000 1.5171 -9.6588 1.2415
